<svg width="70" height="73" viewBox="0 0 70 73" fill="none" xmlns="http://www.w3.org/2000/svg">
<path d="M35.0008 2.91992C17.2338 2.91992 2.80078 17.9715 2.80078 36.4999C2.80078 55.0283 17.2338 70.0799 35.0008 70.0799C52.7678 70.0799 67.2008 55.0283 67.2008 36.4999C67.2008 17.9715 52.7678 2.91992 35.0008 2.91992ZM35.0008 5.83992C51.2545 5.83992 64.4008 19.5496 64.4008 36.4999C64.4008 53.4503 51.2545 67.1599 35.0008 67.1599C18.747 67.1599 5.60078 53.4503 5.60078 36.4999C5.60078 19.5496 18.747 5.83992 35.0008 5.83992ZM47.7238 20.4913C46.7662 20.4913 45.6902 20.7225 44.4316 21.1956C42.4772 21.93 19.4898 32.1085 16.8746 33.2663C15.3794 33.9291 12.5953 35.1621 12.5953 38.1025C12.5953 40.0516 13.6905 41.4457 15.8465 42.2487C17.0057 42.6794 19.7589 43.5496 21.3563 44.0081C22.0339 44.2023 22.7539 44.3018 23.4945 44.3018C24.9435 44.3018 26.4018 43.9253 27.5442 43.261C27.5344 43.5063 27.5408 43.7542 27.5688 44.0024C27.741 45.5354 28.6474 46.9772 29.9914 47.8605C30.8706 48.4387 38.0518 53.4566 39.1242 54.2538C40.6306 55.3765 42.2959 55.9704 43.9367 55.9704C47.0727 55.9704 48.1249 52.5937 48.6317 50.9716C49.3667 48.6166 52.1189 29.4658 52.4297 26.0889C52.6411 23.7748 51.7163 21.8692 49.9551 20.9903C49.2957 20.6588 48.5428 20.4913 47.7238 20.4913ZM47.7238 23.4113C48.1088 23.4113 48.4526 23.4777 48.7438 23.6251C49.406 23.9565 49.7428 24.6954 49.6406 25.8123C49.3018 29.4958 46.5563 48.193 45.9711 50.0677C45.4699 51.6707 44.9419 53.0504 43.9367 53.0504C42.9315 53.0504 41.8334 52.6829 40.7512 51.8755C39.669 51.0696 32.4826 46.0438 31.4844 45.3882C30.6094 44.813 29.6833 43.379 30.9867 41.992C32.0605 40.8503 40.2058 32.606 40.9016 31.8804C41.4196 31.3387 41.1773 30.6856 40.6691 30.6856C40.4941 30.6856 40.2846 30.7625 40.0676 30.9479C39.2164 31.6736 27.3495 39.9547 26.3219 40.6204C25.6415 41.0614 24.5879 41.379 23.4945 41.379C23.0283 41.379 22.5563 41.3207 22.1027 41.1907C20.5235 40.7367 17.851 39.8911 16.7898 39.4969C15.7692 39.1173 15.3981 38.7537 15.3981 38.1025C15.3981 37.1769 16.6509 36.5379 17.9711 35.9524C19.3655 35.3348 43.4933 24.6497 45.3805 23.9416C46.2541 23.6117 47.0532 23.4113 47.7238 23.4113Z" fill="white"/>
</svg>
