<svg width="70" height="70" viewBox="0 0 70 70" fill="none" xmlns="http://www.w3.org/2000/svg">
<path d="M34.1944 4.19964C32.2858 4.21057 30.3718 4.32542 28.4413 4.56057C24.7499 5.01448 21.0913 5.76917 17.5804 7.38244C11.9968 9.94728 8.0374 14.3004 6.88896 20.6278C6.40224 23.2965 6.00849 26.0035 5.78428 28.727C5.35225 34.0153 5.62021 39.32 7.11866 44.5317C8.29991 48.6387 10.4765 52.3301 14.2882 54.7254C15.9015 55.7371 18.0288 56.2293 19.139 56.7434C19.4507 56.891 19.5272 56.9785 19.5436 57.0004C19.5601 57.0168 19.6038 57.0551 19.5983 57.3832C19.5601 60.7301 19.5983 67.2051 19.5983 67.2051L19.6038 68.5996H22.103L22.5077 68.2059C22.5077 68.2059 28.8569 62.0973 31.1538 59.5817C31.5694 59.1332 31.7827 58.8817 31.8265 58.8543C31.8647 58.827 31.7991 58.8106 32.2257 58.7996C35.239 58.7395 38.2468 58.6246 41.2546 58.4606C45.2194 58.2418 49.2608 57.8645 53.1491 56.2403C56.5343 54.8239 59.3616 52.5106 61.0733 49.0434C62.8233 45.4887 63.7585 41.7207 64.1085 37.8215C64.6882 31.3301 64.4858 24.8278 62.6921 18.4184C61.6366 14.6614 59.5148 11.484 56.2608 9.24184C52.3671 6.56215 47.9757 5.5559 43.6773 4.91606C41.1671 4.54419 38.6405 4.29809 36.103 4.22154C35.4687 4.20513 34.8343 4.19417 34.1944 4.19964ZM36.0265 7.02152C38.4382 7.08715 40.8499 7.3223 43.2671 7.68325C47.4124 8.30122 51.3226 9.24184 54.6749 11.5497C57.3929 13.42 59.0882 15.9465 59.996 19.1676C61.6694 25.1614 61.8827 31.3028 61.3194 37.5754C60.9968 41.1903 60.1382 44.5973 58.5577 47.8075C57.1632 50.6403 54.9866 52.4395 52.0663 53.659C48.6757 55.0754 44.9897 55.4528 41.1069 55.6661C38.1319 55.8301 35.1515 55.9395 32.171 55.9997C31.4218 56.0161 30.689 56.2129 30.1694 56.5957C29.6499 56.9786 29.4148 57.334 29.0921 57.684C27.4515 59.4778 24.1812 62.6332 22.3983 64.3614C22.3874 62.2723 22.371 59.7457 22.3983 57.416C22.4093 56.6996 22.2452 55.9668 21.8351 55.3871C21.4249 54.8075 20.8616 54.4575 20.3202 54.2059C18.7398 53.4731 16.6726 52.9153 15.7757 52.352C12.6421 50.3832 10.8648 47.4301 9.80929 43.7551C8.4257 38.9481 8.1632 33.9989 8.57336 28.9621C8.79211 26.3481 9.16945 23.7285 9.64524 21.1309C10.6406 15.6567 13.7687 12.2114 18.7452 9.92542C21.8898 8.48167 25.2476 7.77073 28.7859 7.33869C31.1976 7.04338 33.6093 6.95043 36.0265 7.02152ZM36.6171 13.9996C35.4632 13.9996 34.3421 14.1309 33.2538 14.3715C32.5046 14.5465 32.0288 15.2957 32.1983 16.0504C32.3679 16.8051 33.1226 17.2754 33.8772 17.1059C34.7577 16.9036 35.6765 16.7997 36.6171 16.7997C43.453 16.7997 48.9655 22.3122 48.9655 29.1426C48.9655 30.0887 48.8616 31.0075 48.6593 31.8934C48.4897 32.6426 48.96 33.3973 49.7147 33.5668C50.4694 33.7364 51.2187 33.2606 51.3882 32.5059C51.6343 31.4231 51.7655 30.302 51.7655 29.1426C51.7655 20.7973 44.9679 13.9996 36.6171 13.9996ZM22.6499 16.8051C22.4202 16.7942 22.1851 16.8106 21.939 16.8653C19.396 17.4285 16.8694 19.2715 16.7983 22.5637C16.8694 23.0231 16.864 23.5153 17.0335 23.9309C17.8648 25.9653 18.5866 28.0653 19.6257 29.9903C24.6843 39.3418 32.3351 45.8442 42.0858 49.9731C43.2507 50.4653 44.4538 50.5692 45.6296 50.077C47.2483 49.4043 48.621 48.3653 49.5343 46.8723C50.7866 44.8215 50.803 43.3997 48.7413 41.8848C47.3905 40.8895 46.0616 39.8668 44.6944 38.8934C42.6108 37.4168 40.3577 37.1598 38.8046 39.752C38.7226 39.8832 38.6023 39.9926 38.4983 40.102C37.6999 40.9497 36.721 41.1575 35.6819 40.7309C31.739 39.1067 28.6929 36.4872 26.8554 32.5879C25.7726 30.2965 26.0679 29.1481 28.0913 27.6223C28.2936 27.4747 28.4851 27.3161 28.671 27.1465C29.5569 26.3372 29.7921 25.3747 29.2671 24.2864C28.0804 21.8036 26.4999 19.5887 24.4983 17.6801C23.9569 17.1661 23.339 16.8434 22.6499 16.8051ZM36.5952 18.1996C35.9772 18.1996 35.3647 18.2489 34.7632 18.3528C34.2546 18.4184 33.8226 18.7575 33.6366 19.2332C33.4507 19.7145 33.5436 20.2559 33.8718 20.6497C34.2054 21.0379 34.7304 21.2184 35.2335 21.109C35.671 21.0379 36.1304 20.9997 36.5952 20.9997C41.1452 20.9997 44.7984 24.6528 44.7984 29.2028C44.7984 29.6676 44.7601 30.127 44.689 30.5645C44.5796 31.0677 44.7601 31.5927 45.1484 31.9262C45.5421 32.2544 46.0835 32.3473 46.5648 32.1614C47.0406 31.9755 47.3796 31.5434 47.4453 31.0348C47.5492 30.4333 47.5984 29.8208 47.5984 29.2028C47.5984 23.1434 42.6546 18.1996 36.5952 18.1996ZM36.3983 22.3996C35.8952 22.3942 35.4249 22.6567 35.1679 23.0942C34.9163 23.5317 34.9163 24.0676 35.1679 24.5051C35.4249 24.9426 35.8952 25.2051 36.3983 25.1996C38.7335 25.1996 40.5983 27.0645 40.5983 29.3996C40.5929 29.9028 40.8554 30.3731 41.2929 30.6301C41.7304 30.8817 42.2663 30.8817 42.7038 30.6301C43.1413 30.3731 43.4038 29.9028 43.3983 29.3996C43.3983 25.5496 40.2483 22.3996 36.3983 22.3996Z" fill="white"/>
</svg>
