<svg width="70" height="69" viewBox="0 0 70 69" fill="none" xmlns="http://www.w3.org/2000/svg">
<path d="M12.6016 5.51953C8.75223 5.51953 5.60156 8.62519 5.60156 12.4195V56.5795C5.60156 60.3739 8.75223 63.4795 12.6016 63.4795H57.4016C61.2509 63.4795 64.4016 60.3739 64.4016 56.5795V12.4195C64.4016 8.62519 61.2509 5.51953 57.4016 5.51953H12.6016ZM12.6016 8.27953H57.4016C59.7374 8.27953 61.6016 10.117 61.6016 12.4195V56.5795C61.6016 58.882 59.7374 60.7195 57.4016 60.7195H12.6016C10.2657 60.7195 8.40156 58.882 8.40156 56.5795V12.4195C8.40156 10.117 10.2657 8.27953 12.6016 8.27953ZM32.7566 22.0688C31.2761 22.0654 29.956 22.147 28.7754 22.7183C28.7745 22.7192 28.7736 22.7201 28.7727 22.721C28.1971 23.0005 27.7914 23.3556 27.4684 23.7776C27.3068 23.9886 27.1414 24.178 27.0527 24.6589C27.0084 24.8994 26.9835 25.2891 27.2387 25.7101C27.4938 26.1311 28.0069 26.3704 28.3352 26.4136C28.5632 26.4435 29.0779 26.6595 29.1254 26.7236C29.1263 26.7254 29.1272 26.7272 29.1281 26.729C29.1284 26.7294 29.3277 27.2423 29.3851 27.6993C29.4426 28.1562 29.4398 28.5267 29.4398 28.5267C29.4392 28.5636 29.4401 28.6005 29.4426 28.6373C29.4426 28.6373 29.5237 29.8345 29.4699 31.0711C29.4485 31.564 29.3838 32.0025 29.3168 32.3945C28.8182 31.8519 28.0836 30.8694 27.0226 29.0577C25.8457 27.0468 24.909 25.2438 24.909 25.2438C24.8598 25.0868 24.6858 24.5981 24.0066 24.1064C23.2642 23.567 22.5465 23.4865 22.5465 23.4865C22.4564 23.4687 22.3648 23.4597 22.273 23.4595L16.7551 23.4622C16.7551 23.4622 16.4242 23.4434 16.0277 23.4973C15.6312 23.5512 15.0342 23.595 14.4582 24.2681C14.4573 24.269 14.4564 24.2699 14.4555 24.2708C13.9407 24.8771 13.9718 25.5472 14.0344 25.9257C14.0969 26.3043 14.2367 26.5915 14.2367 26.5915C14.2394 26.5969 14.2421 26.6023 14.2449 26.6077C14.2449 26.6077 18.7584 35.9616 23.859 41.4696C27.5629 45.4689 31.3647 45.5368 34.5012 45.5368H36.8418C37.4394 45.5368 37.9799 45.5138 38.5781 45.1703C39.1764 44.8267 39.5789 43.9904 39.5789 43.4102C39.5789 42.8023 39.671 42.3244 39.784 42.0788C39.8634 41.906 39.9263 41.8438 40.0246 41.7931C40.0454 41.8061 40.032 41.7985 40.0902 41.8389C40.3233 42.0004 40.7081 42.3687 41.1265 42.8281C41.9634 43.7468 42.9133 45.0069 44.189 45.8711C45.103 46.4907 45.9663 46.7658 46.6226 46.8656C47.0338 46.9282 47.3532 46.9161 47.5797 46.898L52.8078 46.9196C52.8388 46.9197 52.8698 46.9188 52.9008 46.9169C52.9008 46.9169 53.8016 46.9272 54.7383 46.3751C55.2066 46.099 55.759 45.5756 55.9387 44.8118C56.1184 44.0481 55.8925 43.2567 55.4519 42.5343C55.4519 42.5334 55.4519 42.5325 55.4519 42.5316C55.5284 42.6566 55.3827 42.3997 55.2332 42.1596C55.0837 41.9196 54.8667 41.5961 54.5551 41.1947C53.9319 40.392 52.9337 39.2687 51.3203 37.7878C51.3194 37.7878 51.3185 37.7878 51.3176 37.7878C50.4981 37.0363 49.9448 36.5042 49.718 36.2084C49.4912 35.9126 49.5655 36.068 49.5812 35.9928C49.6126 35.8424 50.5961 34.4439 52.5973 31.8096C53.8137 30.2062 54.6674 29.0024 55.2305 28.0012C55.7935 26.9999 56.1995 26.1327 55.9168 25.0714C55.9159 25.0696 55.915 25.0678 55.914 25.066C55.7885 24.6 55.4458 24.1706 55.0937 23.9366C54.7417 23.7027 54.408 23.6112 54.1094 23.5539C53.5121 23.4394 52.991 23.4596 52.507 23.4596C51.4924 23.4596 46.9904 23.4946 46.6199 23.4946C46.1821 23.4946 45.4581 23.6909 45.1379 23.88C44.3327 24.3576 44.1016 24.9851 44.1016 24.9851C44.087 25.0116 44.0733 25.0386 44.0605 25.066C44.0605 25.066 43.1319 27.0958 41.9359 29.1008C40.7244 31.1346 39.8294 32.1046 39.2891 32.5535C39.2742 32.4737 39.2768 32.5385 39.2672 32.4269C39.2188 31.8589 39.2727 31.0742 39.2727 30.3083C39.2727 28.2459 39.45 26.8025 39.3547 25.5269C39.307 24.8891 39.1872 24.2314 38.7613 23.6267C38.3355 23.022 37.6269 22.6291 36.9266 22.4623C36.5064 22.3624 36.0274 22.1025 34.2934 22.0849C34.2924 22.0849 34.2915 22.0849 34.2906 22.0849C33.7603 22.0797 33.2501 22.0699 32.7566 22.0688ZM34.2633 24.8449C35.7976 24.8605 35.4154 24.9437 36.2676 25.1468C36.5318 25.2097 36.4678 25.2094 36.4617 25.2007C36.4556 25.192 36.5332 25.3343 36.5629 25.7317C36.6223 26.5264 36.4727 28.1066 36.4727 30.3083C36.4727 30.9087 36.3992 31.7655 36.4754 32.6587C36.5516 33.5518 36.7763 34.698 37.859 35.389C38.3722 35.7169 38.9681 35.7376 39.4777 35.6127C39.9874 35.4878 40.4497 35.2277 40.9352 34.8446C41.9061 34.0782 42.9891 32.7849 44.3504 30.4997C45.6227 28.3666 46.5482 26.3354 46.5789 26.2681C46.5849 26.2633 46.591 26.26 46.5981 26.2546C46.6155 26.2548 46.5974 26.2546 46.6199 26.2546C47.1426 26.2546 51.5617 26.2195 52.5071 26.2195C52.7277 26.2195 52.8081 26.2327 52.9828 26.2384C52.9353 26.3947 52.9881 26.295 52.7805 26.6643C52.345 27.4387 51.5424 28.5896 50.3551 30.1547C48.404 32.7231 47.1947 33.7294 46.8387 35.4348C46.6607 36.2875 46.9943 37.2326 47.484 37.8714C47.9737 38.5101 48.5918 39.0573 49.4117 39.8093C50.9301 41.203 51.8209 42.2155 52.3321 42.8739C52.5876 43.2031 52.7487 43.4408 52.8488 43.6016C52.949 43.7624 52.9242 43.7454 53.0539 43.9574C53.1393 44.0984 53.1078 44.0124 53.1223 44.0544C52.9544 44.1011 52.7511 44.1572 52.7395 44.1595L47.5906 44.138C47.4979 44.1379 47.4054 44.1469 47.3145 44.1649C47.3145 44.1649 47.3273 44.1799 47.052 44.138C46.7765 44.0961 46.3385 43.9786 45.775 43.5962C45.0949 43.1356 44.1429 42.0084 43.2102 40.9845C42.7438 40.4725 42.2787 39.9808 41.7008 39.5802C41.1229 39.1796 40.2582 38.8029 39.3246 39.0923C38.3555 39.3923 37.6012 40.1378 37.2328 40.9386C36.9586 41.5347 36.9364 42.1574 36.8938 42.7768C36.8473 42.7803 36.9008 42.7768 36.8418 42.7768H34.5012C31.3209 42.7768 29.0626 42.9936 25.9262 39.6071C21.7073 35.0513 17.8419 27.4712 17.2117 26.2222L22.068 26.2195C22.1533 26.2518 22.336 26.3194 22.3469 26.3274C22.3487 26.3292 22.3505 26.331 22.3524 26.3327C22.1749 26.2048 22.3606 26.384 22.3606 26.384C22.3777 26.4253 22.3969 26.4658 22.418 26.5052C22.418 26.5052 23.3803 28.3583 24.5973 30.4377C25.7911 32.4762 26.661 33.7497 27.5012 34.5912C27.9213 35.0119 28.3453 35.3494 28.9121 35.5399C29.4789 35.7305 30.2108 35.6606 30.7032 35.3944C31.709 34.8517 31.8441 34.0512 32.0075 33.3513C32.171 32.6505 32.2362 31.9039 32.2672 31.1897C32.3275 29.8033 32.2423 28.6035 32.2371 28.5294C32.2375 28.5034 32.2439 28.0031 32.1633 27.3624C32.0809 26.7062 31.9889 25.904 31.3868 25.0956L31.384 25.0929C31.3798 25.0873 31.3746 25.0877 31.3704 25.0821C32.1666 24.9696 32.8479 24.831 34.2633 24.8449ZM46.6145 26.198L46.5953 26.2411C46.5923 26.2428 46.5933 26.2391 46.5898 26.2411C46.5958 26.23 46.6145 26.198 46.6145 26.198Z" fill="white"/>
</svg>
