<svg width="70" height="70" viewBox="0 0 70 70" fill="none" xmlns="http://www.w3.org/2000/svg">
<path d="M35.0008 2.79982C17.2341 2.79982 2.80078 17.2332 2.80078 34.9998C2.80078 40.7106 4.36695 46.0401 6.97891 50.6924L2.85274 65.4225C2.71859 65.9021 2.84936 66.417 3.19617 66.7745C3.54298 67.132 4.05359 67.2783 4.5371 67.1588L19.8961 63.3525C24.4093 65.7619 29.5304 67.1998 35.0008 67.1998C52.7674 67.1998 67.2008 52.7665 67.2008 34.9998C67.2008 17.2331 52.7674 2.79982 35.0008 2.79982ZM35.0008 5.59982C51.2541 5.59982 64.4008 18.7465 64.4008 34.9998C64.4008 51.2532 51.2541 64.3998 35.0008 64.3998C29.79 64.3998 24.9098 63.0413 20.6672 60.6674C20.3569 60.494 19.9923 60.4451 19.6473 60.5307L6.19687 63.8639L9.80351 50.9959C9.9078 50.6284 9.85743 50.2343 9.66406 49.9049C7.08573 45.5328 5.60078 40.4459 5.60078 34.9998C5.60078 18.7465 18.7474 5.59982 35.0008 5.59982ZM23.3004 18.1998C22.4029 18.1998 21.1213 18.5337 20.0684 19.6682C19.436 20.3496 16.8008 22.9171 16.8008 27.4311C16.8008 32.1372 20.0647 36.198 20.4594 36.7197H20.4621V36.7225C20.4247 36.6733 20.963 37.4529 21.6816 38.3877C22.4003 39.3225 23.4052 40.5503 24.6676 41.8795C27.1924 44.5379 30.7424 47.6102 35.1484 49.4893C37.1775 50.3533 38.7782 50.875 39.991 51.2557C42.2386 51.9614 44.2857 51.8541 45.8234 51.6276C46.9745 51.4581 48.2404 50.9054 49.493 50.1127C50.7455 49.3201 51.9731 48.3344 52.5145 46.8369C52.9023 45.7634 53.0994 44.7713 53.1707 43.9549C53.2063 43.5467 53.2109 43.1865 53.1844 42.853C53.1578 42.5194 53.1862 42.264 52.8754 41.7537C52.2236 40.6836 51.4854 40.6556 50.7152 40.2744C50.2873 40.0627 49.0689 39.4677 47.8469 38.8854C46.6262 38.3037 45.5693 37.7886 44.9184 37.5565C44.5071 37.4085 44.005 37.1955 43.2805 37.2776C42.556 37.3596 41.8404 37.8823 41.4238 38.4998C41.029 39.0851 39.4393 40.9615 38.9547 41.5131C38.9483 41.5092 38.9903 41.5286 38.7988 41.4338C38.1994 41.1372 37.4664 40.8849 36.3816 40.3127C35.2969 39.7405 33.9399 38.8955 32.4551 37.5865V37.5838C30.245 35.6382 28.697 33.1954 28.2086 32.3748C28.2415 32.3357 28.2047 32.3831 28.2742 32.3147L28.2769 32.3119C28.7761 31.8203 29.2184 31.2332 29.5922 30.8026C30.1221 30.192 30.356 29.6538 30.6094 29.151C31.1143 28.1488 30.8332 27.0461 30.541 26.4659V26.4631C30.5612 26.5033 30.383 26.1101 30.191 25.6565C29.9985 25.2016 29.7531 24.6119 29.491 23.9831C28.9668 22.7253 28.3816 21.3147 28.0336 20.4885V20.4858C27.6236 19.5126 27.0689 18.8115 26.3437 18.4733C25.6185 18.1351 24.9778 18.2312 24.9519 18.2299H24.9492C24.4317 18.2061 23.8638 18.1998 23.3004 18.1998ZM23.3004 20.9998C23.8402 20.9998 24.3723 21.0064 24.818 21.0272C25.2765 21.05 25.2479 21.0519 25.1598 21.0108C25.0702 20.969 25.1917 20.9554 25.4523 21.574C25.7931 22.383 26.3812 23.7988 26.907 25.0603C27.1699 25.6911 27.416 26.2832 27.6125 26.7475C27.809 27.2118 27.9155 27.471 28.0391 27.7182V27.7209L28.0418 27.7236C28.1629 27.9627 28.1522 27.8096 28.1101 27.8932C27.8147 28.4795 27.7746 28.6235 27.4758 28.9678C27.0208 29.492 26.5566 30.0766 26.3109 30.3185C26.096 30.5297 25.7082 30.8586 25.466 31.5025C25.2235 32.1474 25.3367 33.0322 25.7258 33.6927C26.2438 34.5722 27.951 37.3508 30.6039 39.6865C32.2746 41.1593 33.8312 42.1341 35.0746 42.79C36.3181 43.4459 37.3308 43.829 37.5574 43.9412C38.0956 44.2075 38.6837 44.4143 39.3676 44.3322C40.0515 44.2501 40.6411 43.8352 41.0164 43.4107L41.0191 43.408C41.5187 42.8417 43.003 41.1468 43.7152 40.1021C43.7454 40.1128 43.7355 40.1045 43.9723 40.1896V40.1924H43.975C44.0831 40.2309 45.4368 40.8368 46.6437 41.4119C47.8507 41.987 49.0758 42.5848 49.4738 42.7818C50.0483 43.0661 50.3197 43.2512 50.3898 43.2521C50.3946 43.3753 50.3994 43.5088 50.3816 43.7115C50.3325 44.2738 50.1822 45.0521 49.8812 45.8853C49.7338 46.2933 48.9658 47.1345 47.9973 47.7475C47.0287 48.3604 45.8499 48.7933 45.4133 48.8576C44.1006 49.051 42.5421 49.1216 40.8305 48.5842C39.6436 48.2117 38.1638 47.7294 36.2477 46.9135C32.3615 45.2561 29.0586 42.4359 26.6992 39.9518C25.5195 38.7097 24.5744 37.5534 23.9019 36.6787C23.2308 35.8056 22.9377 35.3513 22.6934 35.0299L22.6906 35.0272C22.2569 34.4535 19.6008 30.759 19.6008 27.4311C19.6008 23.909 21.2367 22.5278 22.1219 21.574C22.5866 21.0733 23.0947 20.9998 23.3004 20.9998Z" fill="white"/>
</svg>
