<svg width="329" height="88" viewBox="0 0 329 88" fill="none" xmlns="http://www.w3.org/2000/svg">
<g filter="url(#filter0_d_331_117)">
<path d="M57.3995 0.750612C57.7791 0.276181 58.3537 0 58.9612 0H313.839C315.516 0 316.448 1.93986 315.4 3.24939L258.6 74.2494C258.221 74.7238 257.646 75 257.039 75H2.16126C0.484243 75 -0.448102 73.0601 0.599519 71.7506L57.3995 0.750612Z" fill="#0B7AC1"/>
<path d="M58.9613 0.5H313.839C315.096 0.5 315.796 1.9549 315.01 2.93704L258.21 73.937C257.925 74.2929 257.494 74.5 257.039 74.5H2.16126C0.903497 74.5 0.204237 73.0451 0.989954 72.063L57.7899 1.06296C58.0746 0.707136 58.5056 0.5 58.9613 0.5Z" stroke="white"/>
</g>
<defs>
<filter id="filter0_d_331_117" x="0.15625" y="0" width="328.688" height="88" filterUnits="userSpaceOnUse" color-interpolation-filters="sRGB">
<feFlood flood-opacity="0" result="BackgroundImageFix"/>
<feColorMatrix in="SourceAlpha" type="matrix" values="0 0 0 0 0 0 0 0 0 0 0 0 0 0 0 0 0 0 127 0" result="hardAlpha"/>
<feOffset dx="10" dy="10"/>
<feGaussianBlur stdDeviation="1.5"/>
<feComposite in2="hardAlpha" operator="out"/>
<feColorMatrix type="matrix" values="0 0 0 0 0 0 0 0 0 0 0 0 0 0 0 0 0 0 0.25 0"/>
<feBlend mode="normal" in2="BackgroundImageFix" result="effect1_dropShadow_331_117"/>
<feBlend mode="normal" in="SourceGraphic" in2="effect1_dropShadow_331_117" result="shape"/>
</filter>
</defs>
</svg>
